<?xml version="1.0" encoding="UTF-8"?>
<svg width="113px" height="98px" viewBox="0 0 113 98" version="1.1" xmlns="http://www.w3.org/2000/svg" xmlns:xlink="http://www.w3.org/1999/xlink">
    <title>8A425D37-87F3-4AB7-9E2C-85DF46B0C1EA</title>
    <g id="Desktop-UI" stroke="none" stroke-width="1" fill="none" fill-rule="evenodd">
        <g id="onerequest---homepage---buyer-copy-2" transform="translate(-1049.000000, -1456.000000)">
            <g id="Group" transform="translate(1049.701180, 1456.802477)">
                <path d="M83.1651059,60.4464709 C90.8028726,22.0116258 57.9276264,-7.7202085 42.0512817,2.08471847 C32.1419405,8.20453812 21.6619112,55.2089742 30.8195442,84.8189883 C40.011631,114.540404 79.5336115,78.7209129 83.1651059,60.4464709 Z" id="Oval-Copy" fill="#84CB08" opacity="0.397414435" transform="translate(55.798820, 48.197523) scale(1, -1) rotate(61.000000) translate(-55.798820, -48.197523) "></path>
                <path d="M73.5171809,52.6317151 C76.8565232,53.8651124 79.7057509,55.7222578 81.7722215,58.0073817 C83.9885423,60.4582113 85.2988201,63.4028033 85.2988201,66.5795423 C85.2988201,69.8897881 83.8721575,72.9397726 81.4865288,75.445318 C81.3348061,75.6046672 81.1806938,75.7602502 81.0242729,75.9121916 C81.112028,76.1257562 81.2043967,76.3391427 81.3016009,76.5513433 C82.1742547,78.456382 83.3738143,80.128725 84.2433274,81.213682 C80.8175312,81.8364184 78.2790568,80.7940906 76.3859851,79.7293636 C76.2379361,79.6460959 76.0879541,79.5593838 75.9365018,79.4688312 C75.7805228,79.5469281 75.6242261,79.6230671 75.4676523,79.6972399 C72.1274115,81.2795913 68.1745952,82.1975234 63.9220375,82.1975234 C59.5201743,82.1975234 55.4237304,81.2208843 52.0099399,79.5377397 C49.2389864,78.1715412 46.917616,76.3407939 45.2667564,74.1882543 C45.7430617,74.2127464 46.2233595,74.2267347 46.7091279,74.2267347 C54.0680683,74.2267347 60.7368996,71.9028593 65.5694045,68.1704757 C70.5064592,64.3573433 73.5284924,59.0818326 73.5284924,53.2851573 C73.5284924,53.0663996 73.5245847,52.8485795 73.5171809,52.6317151 Z M46.7988201,36.1975234 C52.7749465,36.1975234 58.1902723,38.0139776 62.1074259,40.9736048 C65.9082884,43.8453675 68.2988201,47.8011293 68.2988201,52.1975234 C68.2988201,56.5939175 65.9082884,60.5496794 62.1074259,63.4214421 C58.1902723,66.3810693 52.7749465,68.1975234 46.7988201,68.1975234 C42.5232828,68.1975234 38.5493,67.2476469 35.1910883,65.6393671 C35.0326472,65.5634881 34.8744889,65.4856225 34.7164996,65.406059 C34.5635585,65.4986706 34.4121117,65.5877167 34.2625052,65.6733234 C32.2533637,66.8229783 29.5412512,67.9444924 26.2879276,68.1602392 C26.7428174,66.4919598 28.3150789,64.6103682 29.3207243,62.384206 C29.4152091,62.1750485 29.5041051,61.9641485 29.5879158,61.7524878 C29.4366682,61.6020607 29.287624,61.4480666 29.1408355,61.290616 C26.735853,58.7109452 25.2988201,55.5922083 25.2988201,52.1975234 C25.2988201,47.8011293 27.6893519,43.8453675 31.4902143,40.9736048 C35.407368,38.0139776 40.8226937,36.1975234 46.7988201,36.1975234 Z" id="Shape-Copy" stroke="#192631" stroke-width="2" fill-rule="nonzero"></path>
            </g>
        </g>
    </g>
</svg>