<?xml version="1.0" encoding="UTF-8"?>
<svg width="107px" height="104px" viewBox="0 0 107 104" version="1.1" xmlns="http://www.w3.org/2000/svg" xmlns:xlink="http://www.w3.org/1999/xlink">
    <title>014A4E51-BA1C-4026-BDD6-CE481BB3A278</title>
    <g id="Desktop-UI" stroke="none" stroke-width="1" fill="none" fill-rule="evenodd">
        <g id="onerequest---homepage---buyer-copy-2" transform="translate(-832.000000, -1464.000000)">
            <g id="Group-4" transform="translate(832.224278, 1464.816132)">
                <path d="M95.7270666,68.6487367 C97.6403252,48.0348297 42.5843444,3.44294081 26.4884001,13.6923476 C3.27435618,28.4743433 6.53048979,108.712938 31.3224496,86.2394301 C56.1402793,63.7424712 94.1345134,85.8072872 95.7270666,68.6487367 Z" id="Oval-Copy" fill="#84CB08" opacity="0.397414435" transform="translate(53.275722, 51.183868) rotate(200.000000) translate(-53.275722, -51.183868) "></path>
                <path d="M49.0898706,55.1838683 C51.2902632,56.2298116 53.7023835,56.850535 56.275722,56.850535 C58.8490499,56.850535 61.2712161,56.2295862 63.4624726,55.1838683 L63.4624726,55.1838683 L64.075722,55.1838683 C67.0265334,55.1838683 69.6976948,56.4137036 71.6319875,58.3975934 C73.5753298,60.3907651 74.775722,63.1444593 74.775722,66.1838683 L74.775722,66.1838683 L74.775722,69.1838683 C74.775722,70.2909857 74.3395876,71.2946798 73.6314992,72.0209244 C72.9324604,72.7378872 71.967549,73.1838683 70.900722,73.1838683 L70.900722,73.1838683 L41.650722,73.1838683 C40.5838949,73.1838683 39.6189835,72.7378872 38.9199448,72.0209244 C38.2118563,71.2946798 37.775722,70.2909857 37.775722,69.1838683 L37.775722,69.1838683 L37.775722,66.1838683 C37.775722,63.1444593 38.9761141,60.3907651 40.9194565,58.3975934 C42.8537491,56.4137036 45.5249106,55.1838683 48.475722,55.1838683 L48.475722,55.1838683 Z M82.4903378,53.1838683 C83.9442224,53.1838683 85.2603384,53.7981445 86.2141982,54.784574 C87.1800169,55.7833709 87.775722,57.1631417 87.775722,58.6838683 L87.775722,58.6838683 L87.775722,61.9338683 C87.775722,62.5600854 87.533898,63.1277763 87.137364,63.5378501 C86.7527662,63.9355801 86.2218712,64.1838683 85.6330299,64.1838683 L85.6330299,64.1838683 L80.0087483,64.1838683 C79.2361441,59.9295975 76.8350389,56.3019011 73.4848288,53.9685962 C74.2788064,53.4710895 75.2083565,53.1838683 76.2049536,53.1838683 L76.2049536,53.1838683 Z M37.3464903,53.1838683 C38.3432644,53.1838683 39.2729677,53.4711916 40.0662427,53.9692163 C36.7159321,56.3026258 34.3143953,59.9299568 33.5344699,64.1838683 L33.5344699,64.1838683 L27.9184141,64.1838683 C27.3295728,64.1838683 26.7986778,63.9355801 26.41408,63.5378501 C26.017546,63.1277763 25.775722,62.5600854 25.775722,61.9338683 L25.775722,61.9338683 L25.775722,58.6838683 C25.775722,57.1631417 26.371427,55.7833709 27.3372458,54.784574 C28.2911055,53.7981445 29.6072216,53.1838683 31.0611061,53.1838683 L31.0611061,53.1838683 Z M56.775722,30.1838683 C59.5342089,30.1838683 62.0276635,31.3543936 63.8328792,33.2416646 C65.6538195,35.1453749 66.775722,37.7770416 66.775722,40.6838683 C66.775722,43.590695 65.6538195,46.2223617 63.8328792,48.126072 C62.0276635,50.013343 59.5342089,51.1838683 56.775722,51.1838683 C54.017235,51.1838683 51.5237804,50.013343 49.7185647,48.126072 C47.8976244,46.2223617 46.775722,43.590695 46.775722,40.6838683 C46.775722,37.7770416 47.8976244,35.1453749 49.7185647,33.2416646 C51.5237804,31.3543936 54.017235,30.1838683 56.775722,30.1838683 Z M34.275722,37.1838683 C35.7925188,37.1838683 37.1673174,37.8008101 38.1630488,38.7965415 C39.1587802,39.7922729 39.775722,41.1670714 39.775722,42.6838683 C39.775722,44.2006652 39.1587802,45.5754637 38.1630488,46.5711951 C37.1673174,47.5669265 35.7925188,48.1838683 34.275722,48.1838683 C32.7589251,48.1838683 31.3841266,47.5669265 30.3883952,46.5711951 C29.3926638,45.5754637 28.775722,44.2006652 28.775722,42.6838683 C28.775722,41.1670714 29.3926638,39.7922729 30.3883952,38.7965415 C31.3841266,37.8008101 32.7589251,37.1838683 34.275722,37.1838683 Z M79.275722,37.1838683 C80.7925188,37.1838683 82.1673174,37.8008101 83.1630488,38.7965415 C84.1587802,39.7922729 84.775722,41.1670714 84.775722,42.6838683 C84.775722,44.2006652 84.1587802,45.5754637 83.1630488,46.5711951 C82.1673174,47.5669265 80.7925188,48.1838683 79.275722,48.1838683 C77.7589251,48.1838683 76.3841266,47.5669265 75.3883952,46.5711951 C74.3926638,45.5754637 73.775722,44.2006652 73.775722,42.6838683 C73.775722,41.1670714 74.3926638,39.7922729 75.3883952,38.7965415 C76.3841266,37.8008101 77.7589251,37.1838683 79.275722,37.1838683 Z" id="Shape" stroke="#192631" stroke-width="2" fill-rule="nonzero"></path>
            </g>
        </g>
    </g>
</svg>