<?xml version="1.0" encoding="UTF-8"?>
<svg width="103px" height="92px" viewBox="0 0 103 92" version="1.1" xmlns="http://www.w3.org/2000/svg" xmlns:xlink="http://www.w3.org/1999/xlink">
    <title>F89CBA22-FB24-4D20-A3D8-49815C9CCC48</title>
    <g id="Desktop-UI" stroke="none" stroke-width="1" fill="none" fill-rule="evenodd">
        <g id="onerequest---homepage---buyer-copy-2" transform="translate(-635.000000, -1470.000000)">
            <g id="Group-5" transform="translate(635.907169, 1470.195891)">
                <path d="M74.0431983,90.1944583 C115.782115,80.2901876 71.6139614,-11.9609685 40.3729203,1.06065126 C9.13187923,14.0822711 -1.44527303,43.2620052 25.4944739,51.9313736 C55.0567947,61.4447017 32.304282,100.098729 74.0431983,90.1944583 Z" id="Oval-Copy" fill="#84CB08" opacity="0.397414435" transform="translate(50.592831, 45.804109) rotate(97.000000) translate(-50.592831, -45.804109) "></path>
                <path d="M73.2149247,24.1088572 C73.9771167,23.8194858 74.7139054,23.7435978 75.3654099,23.8504299 C76.0907906,23.969376 76.7213187,24.3095302 77.2003108,24.8574276 C77.9277879,25.689556 78.3481436,27.0784697 77.9205771,29.105768 L77.9205771,29.105768 L69.921171,67.2992566 C69.5284154,69.0600885 68.7440977,70.0673909 67.7966588,70.5174198 C66.8039726,70.9889409 65.5212056,70.9121662 63.9810298,70.0214984 L63.9810298,70.0214984 L52.4304382,61.4042473 L47.1686642,66.527711 C46.1649772,67.5433702 45.3271987,68.2806621 42.9485773,67.946246 L42.9485773,67.946246 L43.9207136,53.9944252 L63.594,35.996 L38.1717532,52.2030706 L25.7061922,48.2529965 C24.8597165,47.9854303 24.2373771,47.6186204 23.8285751,47.22186 C23.2298438,46.640765 23.0203381,45.9779482 23.112658,45.3135242 C23.1896364,44.7595129 23.5006028,44.1557598 24.1712179,43.5892475 C24.6397131,43.1934791 25.3035116,42.8013637 26.1884566,42.4509387 L26.1884566,42.4509387 Z" id="Path" stroke="#192631" stroke-width="2" fill-rule="nonzero"></path>
            </g>
        </g>
    </g>
</svg>