<?xml version="1.0" encoding="UTF-8"?>
<svg width="104px" height="114px" viewBox="0 0 104 114" version="1.1" xmlns="http://www.w3.org/2000/svg" xmlns:xlink="http://www.w3.org/1999/xlink">
    <title>D5E89DEE-DC91-4917-891E-128A1908A3C5</title>
    <g id="Desktop-UI" stroke="none" stroke-width="1" fill="none" fill-rule="evenodd">
        <g id="onerequest---homepage---buyer-copy-2" transform="translate(-1262.000000, -1463.000000)">
            <g id="Group-2" transform="translate(1262.558754, 1463.777374)">
                <path d="M89.307053,81.4137558 C91.232704,61.7281338 72.0592688,1.50230032 55.8590697,11.290156 C32.4946662,25.4064892 -5.47456934,88.9089968 24.4852813,98.2123055 C57.3617119,108.421288 87.7041847,97.7996228 89.307053,81.4137558 Z" id="Oval-Copy" fill="#84CB08" opacity="0.397414435" transform="translate(51.441246, 56.222626) rotate(200.000000) translate(-51.441246, -56.222626) "></path>
                <path d="M74.9161641,42.222626 L67.3154701,42.222626 L65.2029672,37.022626 C63.0320658,31.676376 57.8511017,28.222626 52.0023633,28.222626 L35.8792944,28.222626 C30.0318255,28.222626 24.8495918,31.676376 22.6774209,37.022626 L20.564918,42.222626 L12.9654936,42.222626 C11.9739883,42.222626 11.2465459,43.140126 11.4877572,44.086376 L12.249477,47.086376 C12.4183249,47.753876 13.0277007,48.222626 13.7272134,48.222626 L16.2751661,48.222626 C14.5701833,49.688876 13.4720373,51.820126 13.4720373,54.222626 L13.4720373,60.222626 C13.4720373,62.237626 14.2540696,64.056376 15.50329,65.463876 L15.50329,72.222626 C15.50329,74.431376 17.3225308,76.222626 19.5657956,76.222626 L23.6283011,76.222626 C25.8715659,76.222626 27.6908067,74.431376 27.6908067,72.222626 L27.6908067,68.222626 L60.190851,68.222626 L60.190851,72.222626 C60.190851,74.431376 62.0100918,76.222626 64.2533566,76.222626 L68.3158621,76.222626 C70.5591269,76.222626 72.3783676,74.431376 72.3783676,72.222626 L72.3783676,65.463876 C73.6275881,64.057626 74.4096204,62.238876 74.4096204,60.222626 L74.4096204,54.222626 C74.4096204,51.820126 73.3114744,49.688876 71.6077611,48.222626 L74.1557138,48.222626 C74.8552265,48.222626 75.4646023,47.753876 75.6334502,47.086376 L76.39517,44.086376 C76.6351117,43.140126 75.9076693,42.222626 74.9161641,42.222626 Z M29.0103477,39.993876 C29.9500743,37.716376 32.2252696,36.222626 34.7556993,36.222626 L51.1267931,36.222626 C53.6572227,36.222626 55.9324181,37.716376 56.8721446,39.993876 L59.4412462,46.222626 L26.4412462,46.222626 L29.0103477,39.993876 Z M23.4412462,60.1977039 C21.0412462,60.1977039 19.4412462,58.6026883 19.4412462,56.2101649 C19.4412462,53.8176416 21.0412462,52.222626 23.4412462,52.222626 C25.8412462,52.222626 29.4412462,55.811411 29.4412462,58.2039344 C29.4412462,60.5964578 25.8412462,60.1977039 23.4412462,60.1977039 Z M64.4412462,60.1977039 C62.0412462,60.1977039 58.4412462,60.5964578 58.4412462,58.2039344 C58.4412462,55.811411 62.0412462,52.222626 64.4412462,52.222626 C66.8412462,52.222626 68.4412462,53.8176416 68.4412462,56.2101649 C68.4412462,58.6026883 66.8412462,60.1977039 64.4412462,60.1977039 L64.4412462,60.1977039 Z" id="Shape" stroke="#192631" stroke-width="2" fill-rule="nonzero"></path>
            </g>
        </g>
    </g>
</svg>