<?xml version="1.0" encoding="utf-8"?>
<!-- Generator: Adobe Illustrator 24.2.1, SVG Export Plug-In . SVG Version: 6.00 Build 0)  -->
<svg version="1.1" id="Layer_1" xmlns="http://www.w3.org/2000/svg" xmlns:xlink="http://www.w3.org/1999/xlink" x="0px" y="0px"
	 viewBox="0 0 178 36" style="enable-background:new 0 0 178 36;" xml:space="preserve">
<style type="text/css">
	.st0{fill:#0D2148;}
	.st1{fill-rule:evenodd;clip-rule:evenodd;fill:#86C542;}
	.st2{fill-rule:evenodd;clip-rule:evenodd;fill:#0D2148;}
</style>
<g id="IU-r2">
	<g id="Landing" transform="translate(-170.000000, -61.000000)">
		<g id="Group" transform="translate(170.000000, 57.000000)">
			<path id="_xAE_" class="st0" d="M173.1,13.9c2.7,0,4.8-2.2,4.8-4.8c0-2.6-2.1-4.7-4.7-4.7c-2.7,0-4.7,2.2-4.7,4.8
				S170.4,13.9,173.1,13.9z M173.1,12.8c-2.1,0-3.7-1.7-3.7-3.7s1.6-3.7,3.7-3.7c2.1,0,3.7,1.7,3.7,3.7S175.2,12.8,173.1,12.8z
				 M172.3,11.2V9.9h1l0.7,1.3h1.2l-1-1.5c0.6-0.3,0.9-0.8,0.9-1.5c0-1-0.7-1.6-1.9-1.6h-1.9v4.5H172.3z M173.2,9.1h-0.9V7.5h0.9
				c0.6,0,0.9,0.3,0.9,0.8S173.8,9.1,173.2,9.1z"/>
			<g id="Onerequest" transform="translate(0.000000, 4.000000)">
				<g id="Group-3_1_" transform="translate(0.000000, 9.910906)">
					<path id="Fill-1_1_" class="st1" d="M12.6,7.8c0-3-1.9-4.8-4.5-4.8C5.6,3,3.6,4.9,3.6,7.8s1.9,4.8,4.5,4.8S12.6,10.7,12.6,7.8
						 M0,7.8C0,3.2,3.4,0,8.1,0s8.1,3.2,8.1,7.8s-3.4,7.9-8.1,7.9C3.4,15.7,0,12.5,0,7.8"/>
				</g>
				<path id="Fill-4_1_" class="st1" d="M34.1,16.6v16.6c0,1-0.8,1.8-1.7,1.8s-1.7-0.8-1.7-1.8V17.1c0-2.7-1.4-4.4-3.7-4.4
					c-2.5,0-3.7,1.8-3.7,4.9v6c0,1-0.8,1.8-1.7,1.8c-1,0-1.7-0.8-1.7-1.8V11.8c0-1,0.8-1.7,1.7-1.7c1,0,1.7,0.8,1.7,1.7V12
					c1.1-1.4,2.5-2.2,4.7-2.2C31.4,9.8,34.1,11.9,34.1,16.6"/>
				<path id="Fill-6_1_" class="st1" d="M40.3,16.5H49c-0.3-2.2-2-3.7-4.3-3.7C42.3,12.7,40.7,14.3,40.3,16.5 M52,18.7
					c-0.2,0.2-0.7,0.2-0.7,0.2h-11c0.4,2.3,2.3,3.7,5,3.7c1.2,0,2.3-0.3,3.1-0.9c0.6-0.4,1.4-0.3,1.9,0.3c0.6,0.7,0.4,1.7-0.3,2.3
					c-1.3,0.9-3,1.4-4.9,1.4c-5.1,0-8.4-3.3-8.4-7.8c0-4.3,3.5-7.8,7.7-7.9c4.5-0.1,7.8,3,7.8,7.9C52.4,18.1,52.3,18.5,52,18.7"/>
				<path id="Fill-8_1_" class="st2" d="M62.8,9.8c1.4-0.3,2.8,0.5,2.9,1.3c0,0.5,0.2,1.6-0.8,2c-0.3,0.1-0.7,0.1-1,0.1
					c-2.7,0-4.3,1.5-4.3,4.6v7.5h-3.6V11.7c0-1,0.8-1.7,1.7-1.7s1.7,0.8,1.7,1.7v0.5C60.2,11,61.3,10.2,62.8,9.8"/>
				<path id="Fill-10_1_" class="st2" d="M97,17.6c0-3-1.9-4.8-4.5-4.8c-2.5,0-4.5,1.8-4.5,4.8s1.9,4.8,4.5,4.8
					C95,22.4,97,20.6,97,17.6 M100.4,11.6v21.8c0,1-0.8,1.8-1.7,1.8S97,34.4,97,33.4v-9.9c-1.2,1.4-3,2.1-4.9,2.1
					c-4.4,0-7.7-3.1-7.7-7.9s3.2-7.8,7.7-7.8c2.1,0,3.8,0.7,5.1,2.2v-0.3c0-1,0.8-1.7,1.7-1.7C99.7,9.9,100.4,10.7,100.4,11.6"/>
				<path id="Fill-12_1_" class="st2" d="M119.2,11.7v11.8c0,1-0.8,1.7-1.7,1.7c-1,0-1.7-0.8-1.7-1.7v-0.3c-1.1,1.4-3,2.2-4.9,2.2
					c-3.9,0-6.5-2.2-6.5-6.8v-7c0-1,0.8-1.8,1.7-1.8c1,0,1.7,0.8,1.7,1.8v6.5c0,2.8,1.3,4.1,3.6,4.1c2.4,0,4.2-1.6,4.2-4.6v-6
					c0-1,0.8-1.8,1.7-1.8S119.2,10.7,119.2,11.7"/>
				<path id="Fill-14_1_" class="st2" d="M139.9,22.4L139.9,22.4c0.3-0.7,1.2-1,1.9-0.7c1.2,0.5,2.7,0.9,4,0.9
					c2.3,0,3.2-0.6,3.2-1.7c0-3-9.4-0.2-9.4-6.3c0-2.9,2.6-4.8,6.7-4.8c1.4,0,2.9,0.3,4.2,0.6c0.9,0.3,1.2,1.3,0.8,2.1l0,0
					c-0.3,0.7-1.1,1-1.9,0.7c-1-0.4-2.1-0.5-3.1-0.5c-2.2,0-3.2,0.7-3.2,1.7c0,3.1,9.4,0.3,9.4,6.4c0,2.9-2.6,4.8-6.9,4.8
					c-1.8,0-3.7-0.3-5.1-1C139.8,24.2,139.6,23.2,139.9,22.4"/>
				<path id="Fill-16_1_" class="st2" d="M164.9,23.3c0.3,0.7-0.1,1.5-0.8,1.7c-0.7,0.3-1.5,0.3-2.3,0.3c-3.3,0-5.2-1.7-5.2-5.1
					v-7.4h-1c-0.8,0-1.4-0.6-1.4-1.5c0-0.8,0.6-1.5,1.4-1.5h1V1.8c0-1,0.8-1.8,1.7-1.8c1,0,1.7,0.8,1.7,1.8v8.1h2.6
					c0.8,0,1.4,0.6,1.4,1.5c0,0.8-0.6,1.5-1.4,1.5h-2.6v7.3c0,1.5,0.7,2.3,2.1,2.3c0.3,0,0.6,0,0.9-0.1c0.7-0.2,1.4,0.2,1.7,0.8
					L164.9,23.3z"/>
				<path id="Fill-18_1_" class="st2" d="M70.6,16.4h8.6c-0.3-2.2-2-3.7-4.3-3.7C72.6,12.6,70.9,14.1,70.6,16.4 M82.2,18.6
					c-0.2,0.2-0.7,0.2-0.7,0.2h-11c0.4,2.3,2.3,3.7,5,3.7c1.2,0,2.3-0.3,3.1-0.9c0.6-0.4,1.4-0.3,1.9,0.3c0.6,0.7,0.4,1.7-0.3,2.3
					c-1.3,0.9-3,1.4-4.9,1.4c-5.1,0-8.4-3.3-8.4-7.8c0-4.3,3.5-7.8,7.7-7.9c4.5-0.1,7.8,3,7.8,7.9C82.6,17.9,82.5,18.3,82.2,18.6"/>
				<path id="Fill-20_1_" class="st2" d="M125.2,16.4h8.6c-0.3-2.2-2-3.7-4.3-3.7C127.2,12.6,125.5,14.1,125.2,16.4 M136.9,18.6
					c-0.2,0.2-0.7,0.2-0.7,0.2h-10.9c0.4,2.3,2.3,3.7,5,3.7c1.2,0,2.3-0.3,3.1-0.9c0.6-0.4,1.4-0.3,1.9,0.3c0.6,0.7,0.4,1.7-0.3,2.3
					c-1.3,0.9-3,1.4-4.9,1.4c-5.1,0-8.4-3.3-8.4-7.8c0-4.3,3.5-7.8,7.7-7.9c4.5-0.1,7.8,3,7.8,7.9C137.2,17.9,137.1,18.3,136.9,18.6
					"/>
			</g>
		</g>
	</g>
</g>
</svg>
