<?xml version="1.0" encoding="UTF-8"?>
<svg width="32px" height="36px" viewBox="0 0 32 36" version="1.1" xmlns="http://www.w3.org/2000/svg" xmlns:xlink="http://www.w3.org/1999/xlink">
    <title>632DD815-5F18-49A2-A016-2310C4DD1DEE</title>
    <g id="Desktop-UI" stroke="none" stroke-width="1" fill="none" fill-rule="evenodd">
        <g id="onerequest---homepage---buyer-copy-2" transform="translate(-1018.000000, -871.000000)" fill="#000000" fill-rule="nonzero">
            <g id="lock" transform="translate(1018.000000, 871.000000)">
                <path d="M16,29.5312736 C15.2142857,29.5312736 14.5714286,28.8984634 14.5714286,28.1250287 L14.5714286,23.6250451 C14.5714286,22.8516104 15.2142857,22.2188002 16,22.2188002 C16.7857143,22.2188002 17.4285714,22.8516104 17.4285714,23.6250451 L17.4285714,28.1250287 C17.4285714,28.8984634 16.7857143,29.5312736 16,29.5312736 Z M32,19.1250615 L32,32.6250123 C32,34.4882868 30.4642857,36 28.5714286,36 L3.42857143,36 C1.53571429,36 0,34.4882868 0,32.6250123 L0,19.1250615 C0,17.261787 1.53571429,15.7500738 3.42857143,15.7500738 L4.57142857,15.7500738 L4.57142857,11.2500902 C4.57142857,5.03448779 9.71428571,-0.0209625413 16.0357143,6.53615254e-05 C22.35,0.021224805 27.4285714,5.13995616 27.4285714,11.3555585 L27.4285714,15.7500738 L28.5714286,15.7500738 C30.4642857,15.7500738 32,17.261787 32,19.1250615 Z M6.85714286,15.7500738 L25.1428571,15.7500738 L25.1428571,11.2500902 C25.1428571,6.28604573 21.0428571,2.25012294 16,2.25012294 C10.9571429,2.25012294 6.85714286,6.28604573 6.85714286,11.2500902 L6.85714286,15.7500738 Z M29.7142857,32.6250123 L29.7142857,19.1250615 C29.7142857,18.5063137 29.2,18.0000656 28.5714286,18.0000656 L3.42857143,18.0000656 C2.8,18.0000656 2.28571429,18.5063137 2.28571429,19.1250615 L2.28571429,32.6250123 C2.28571429,33.24376 2.8,33.7500082 3.42857143,33.7500082 L28.5714286,33.7500082 C29.2,33.7500082 29.7142857,33.24376 29.7142857,32.6250123 Z" id="Shape"></path>
            </g>
        </g>
    </g>
</svg>