<?xml version="1.0" encoding="UTF-8"?>
<svg width="36px" height="39px" viewBox="0 0 36 39" version="1.1" xmlns="http://www.w3.org/2000/svg" xmlns:xlink="http://www.w3.org/1999/xlink">
    <title>841E4051-E5CC-4ABB-B6B6-BB43FBE57E6D</title>
    <g id="Desktop-UI" stroke="none" stroke-width="1" fill="none" fill-rule="evenodd">
        <g id="onerequest---homepage---buyer-copy-2" transform="translate(-1016.000000, -757.000000)" fill="#000000" fill-rule="nonzero">
            <g id="Shape" transform="translate(1016.000000, 757.000000)">
                <path d="M33.7875,6.37430816 L19.3875,0.279963763 C18.5016019,-0.0933212544 17.5058981,-0.0933212544 16.62,0.279963763 L2.22,6.37430816 C0.8775,6.93803502 0,8.27117286 0,9.74905137 C0,24.8706434 8.5875,35.3224441 16.6125,38.7200411 C17.4975,39.0933196 18.495,39.0933196 19.38,38.7200411 C25.8075,36.0004399 36,26.6075316 36,9.74905137 C36,8.27117286 35.1225,6.93803502 33.7875,6.37430816 Z M18.465,36.4727516 C18.165,36.5946384 17.835,36.5946384 17.5425,36.4727516 C10.2,33.5169945 2.4,23.156609 2.4,9.74905137 C2.4,9.25388589 2.6925,8.81204592 3.135,8.62159766 L17.535,2.52725326 C17.8275,2.40536637 18.165,2.40536637 18.4575,2.52725326 L32.8575,8.62159766 C33.3075,8.81204592 33.6,9.25388589 33.5926409,9.74905137 C33.6,23.156609 25.8,33.5169945 18.465,36.4727516 L18.465,36.4727516 Z M28.68,11.7144774 C28.3275,11.3564347 27.7575,11.3564347 27.405,11.7068595 L15.15,24.0555248 L9.975,18.7610632 C9.6225,18.4030204 9.0525,18.4030204 8.7,18.7534452 L8.0625,19.4009693 C7.71,19.759012 7.71,20.3379748 8.055,20.6960175 L14.4975,27.2931453 C14.85,27.651188 15.42,27.651188 15.7725,27.3007632 L29.31,13.6646676 C29.6625,13.3066249 29.6625,12.7276622 29.3175,12.3696195 L28.68,11.7144774 Z"></path>
            </g>
        </g>
    </g>
</svg>