<?xml version="1.0" encoding="UTF-8"?>
<svg width="61px" height="46px" viewBox="0 0 61 46" version="1.1" xmlns="http://www.w3.org/2000/svg" xmlns:xlink="http://www.w3.org/1999/xlink">
    <title>44CC8D15-C39E-40CB-AC53-12C9ADD4F52F</title>
    <g id="Desktop-UI" stroke="none" stroke-width="1" fill="none" fill-rule="evenodd">
        <g id="onerequest---homepage---buyer-copy-2" transform="translate(-747.000000, -385.000000)">
            <g id="hero" transform="translate(398.000000, 149.000000)">
                <g id="Group-8" transform="translate(349.000000, 236.000000)">
                    <rect id="Rectangle" fill="#2E79B8" x="0" y="0" width="61" height="46" rx="23"></rect>
                    <g id="telegram-plane-brands" transform="translate(20.000000, 14.000000)" fill="#FFFFFF" fill-rule="nonzero">
                        <g id="Plane">
                            <path d="M17.9471117,1.63726265 L15.2310403,16.8989648 C15.0261296,17.9760924 14.4917546,18.2441775 13.7323796,17.7367307 L9.59398672,14.1032201 L7.59711172,16.391518 C7.37612957,16.6548158 7.19130815,16.8750286 6.76541529,16.8750286 L7.06273672,11.8532201 L14.732826,3.59524137 C15.0663081,3.24098605 14.6605046,3.04470946 14.2145224,3.39896478 L4.73237957,10.5127946 L0.650236717,8.99045414 C-0.237709712,8.66013499 -0.25378114,7.93247541 0.835058145,7.42502861 L16.8020224,0.0957732862 C17.5413081,-0.234545863 18.1881831,0.292049882 17.9471117,1.63726265 Z" id="Path"></path>
                        </g>
                    </g>
                </g>
            </g>
        </g>
    </g>
</svg>