<?xml version="1.0" encoding="UTF-8"?>
<svg width="40px" height="36px" viewBox="0 0 40 36" version="1.1" xmlns="http://www.w3.org/2000/svg" xmlns:xlink="http://www.w3.org/1999/xlink">
    <title>9087DC44-2415-4C0C-B608-D96CF57BDD81</title>
    <g id="Desktop-UI" stroke="none" stroke-width="1" fill="none" fill-rule="evenodd">
        <g id="onerequest---homepage---buyer-copy-2" transform="translate(-1014.000000, -988.000000)" fill="#000000" fill-rule="nonzero">
            <g id="lock" transform="translate(1014.000000, 988.000000)">
                <path d="M39.9457733,17.8418278 C37.9110023,9.19507909 29.8969213,3.83128295 21.1119885,3.40246046 L21.1119885,1.12478032 C21.1119885,0.506151142 20.6119765,0 20.0008507,0 C19.389725,0 18.889713,0.506151142 18.889713,1.12478032 L18.889713,3.40246046 C10.1395032,3.82425308 2.14625606,9.13181019 0.0559281742,17.8347979 C-0.360748481,19.5149385 1.63929946,20.9349736 3.11850159,19.599297 C6.556084,16.3585237 9.36170681,17.6520211 11.8270437,21.5465729 C12.6187293,22.797891 14.2437683,22.7346221 14.9937863,21.5465729 C16.0493671,19.8945518 17.1605049,18.3831283 18.8966576,17.9261863 L18.8966576,31.5008787 C18.8966576,32.745167 17.9035782,33.7504394 16.6743821,33.7504394 C15.729915,33.7504394 14.8896171,33.1458699 14.5771096,32.2530756 C14.3687713,31.6695958 13.7368117,31.3602812 13.160409,31.5641476 C12.5840063,31.7680141 12.2784434,32.4147627 12.4867817,32.9982425 C13.1117967,34.7908612 14.7993372,36 16.6813267,36 C19.1327744,36 21.1258777,33.9824253 21.1258777,31.5008787 L21.1258777,17.940246 C23.2162056,18.5237258 24.2231742,20.2811951 25.0287491,21.5395431 C25.778767,22.7346221 27.4107506,22.7838313 28.1954916,21.5395431 C30.7094408,17.6098418 33.5150636,16.4077329 36.9040337,19.5922671 C38.3554574,20.9209139 40.3555054,19.5219684 39.9457733,17.8418278 Z M26.619065,19.8594025 C24.9315245,17.0685413 22.5981352,15.5360281 20.0008507,15.5360281 C16.9104989,15.5360281 15.0285093,17.4340949 13.4243042,19.8594025 C10.5353461,15.0931459 5.95884746,14.4112478 2.58376655,17.0966608 C5.00743576,9.75043937 12.4173356,5.62390158 20.0008507,5.62390158 C27.5913105,5.62390158 35.0706565,9.79261863 37.4457134,17.1318102 C33.3970052,14.0456942 29.5219123,15.5922671 26.619065,19.8594025 Z" id="Shape"></path>
            </g>
        </g>
    </g>
</svg>